<svg xmlns="http://www.w3.org/2000/svg" xmlns:xlink="http://www.w3.org/1999/xlink" version="1.1" id="Capa_1" x="0px" y="0px" viewBox="0 0 189.501 189.501" style="enable-background:new 0 0 189.501 189.501;" xml:space="preserve" width="512px" height="512px">
<g>
	<path d="M28.578,104.941h4.22c1.906,34.772,16.896,55.474,29.607,66.907c14.876,13.379,29.882,17.268,30.514,17.427   c0.601,0.151,1.216,0.227,1.831,0.227c0.615,0,1.23-0.076,1.831-0.227c0.632-0.159,15.639-4.047,30.516-17.426   c12.713-11.433,27.704-32.135,29.61-66.907h4.218c4.142,0,7.5-3.358,7.5-7.5c0-26.008-8.256-42.861-25.24-51.521   c-12.122-6.18-26.622-7.07-41.108-7.199c1.249-17.7,16.856-23.879,17.663-24.186c3.867-1.43,5.856-5.717,4.446-9.596   c-1.416-3.893-5.721-5.899-9.611-4.486c-9.666,3.514-26.483,15.761-27.527,38.273c-14.358,0.141-28.71,1.069-40.726,7.195   c-16.985,8.66-25.242,25.512-25.242,51.521C21.078,101.583,24.436,104.941,28.578,104.941z M94.75,174.166   c-8.673-2.926-43.792-17.895-46.933-69.225h93.87C138.545,156.27,103.423,171.24,94.75,174.166z M94.75,53.696   c34.056,0,55.77,1.852,58.403,36.244h-3.741H40.091h-3.743C38.982,55.549,60.695,53.696,94.75,53.696z" fill="#933EC5"/>
</g>
<g>
</g>
<g>
</g>
<g>
</g>
<g>
</g>
<g>
</g>
<g>
</g>
<g>
</g>
<g>
</g>
<g>
</g>
<g>
</g>
<g>
</g>
<g>
</g>
<g>
</g>
<g>
</g>
<g>
</g>
</svg>
